<mxfile host="Electron" modified="2024-01-15T06:22:25.957Z" agent="Mozilla/5.0 (Windows NT 10.0; Win64; x64) AppleWebKit/537.36 (KHTML, like Gecko) draw.io/22.1.11 Chrome/114.0.5735.289 Electron/25.9.8 Safari/537.36" etag="hrN-NC1ny2SlcLnw0ox2" version="22.1.11" type="device">
  <diagram name="페이지-1" id="HB9ivkwjkyI-a8V0CDi3">
    <mxGraphModel dx="1381" dy="839" grid="1" gridSize="10" guides="1" tooltips="1" connect="1" arrows="1" fold="1" page="1" pageScale="1" pageWidth="827" pageHeight="1169" math="0" shadow="0">
      <root>
        <mxCell id="0" />
        <mxCell id="1" parent="0" />
        <mxCell id="Fqdu5NloyelVK4SY1dfI-17" value="" style="rounded=0;whiteSpace=wrap;html=1;" vertex="1" parent="1">
          <mxGeometry x="80" y="160" width="40" height="40" as="geometry" />
        </mxCell>
        <mxCell id="Fqdu5NloyelVK4SY1dfI-131" style="edgeStyle=orthogonalEdgeStyle;rounded=0;orthogonalLoop=1;jettySize=auto;html=1;exitX=1;exitY=0.5;exitDx=0;exitDy=0;" edge="1" parent="1" source="Fqdu5NloyelVK4SY1dfI-18">
          <mxGeometry relative="1" as="geometry">
            <mxPoint x="340" y="140" as="targetPoint" />
            <Array as="points">
              <mxPoint x="300" y="180" />
              <mxPoint x="300" y="140" />
            </Array>
          </mxGeometry>
        </mxCell>
        <mxCell id="Fqdu5NloyelVK4SY1dfI-133" style="edgeStyle=orthogonalEdgeStyle;rounded=0;orthogonalLoop=1;jettySize=auto;html=1;" edge="1" parent="1" source="Fqdu5NloyelVK4SY1dfI-18">
          <mxGeometry relative="1" as="geometry">
            <mxPoint x="340" y="220" as="targetPoint" />
            <Array as="points">
              <mxPoint x="300" y="180" />
              <mxPoint x="300" y="220" />
            </Array>
          </mxGeometry>
        </mxCell>
        <mxCell id="Fqdu5NloyelVK4SY1dfI-143" value="75" style="edgeLabel;html=1;align=center;verticalAlign=middle;resizable=0;points=[];" vertex="1" connectable="0" parent="Fqdu5NloyelVK4SY1dfI-133">
          <mxGeometry x="-0.6154" y="-1" relative="1" as="geometry">
            <mxPoint as="offset" />
          </mxGeometry>
        </mxCell>
        <mxCell id="Fqdu5NloyelVK4SY1dfI-18" value="" style="rounded=0;whiteSpace=wrap;html=1;" vertex="1" parent="1">
          <mxGeometry x="130" y="160" width="120" height="40" as="geometry" />
        </mxCell>
        <mxCell id="Fqdu5NloyelVK4SY1dfI-19" value="0" style="text;html=1;strokeColor=none;fillColor=none;align=center;verticalAlign=middle;whiteSpace=wrap;rounded=0;" vertex="1" parent="1">
          <mxGeometry x="70" y="200" width="20" height="20" as="geometry" />
        </mxCell>
        <mxCell id="Fqdu5NloyelVK4SY1dfI-20" value="" style="group" vertex="1" connectable="0" parent="1">
          <mxGeometry x="30" y="40" width="180" height="60" as="geometry" />
        </mxCell>
        <mxCell id="Fqdu5NloyelVK4SY1dfI-138" style="edgeStyle=orthogonalEdgeStyle;rounded=0;orthogonalLoop=1;jettySize=auto;html=1;exitX=0;exitY=0.5;exitDx=0;exitDy=0;" edge="1" parent="Fqdu5NloyelVK4SY1dfI-20" source="Fqdu5NloyelVK4SY1dfI-1">
          <mxGeometry relative="1" as="geometry">
            <mxPoint x="40" y="460" as="targetPoint" />
            <Array as="points">
              <mxPoint x="-10" y="20" />
              <mxPoint x="-10" y="460" />
            </Array>
          </mxGeometry>
        </mxCell>
        <mxCell id="Fqdu5NloyelVK4SY1dfI-141" value="100" style="edgeLabel;html=1;align=center;verticalAlign=middle;resizable=0;points=[];" vertex="1" connectable="0" parent="Fqdu5NloyelVK4SY1dfI-138">
          <mxGeometry x="0.8836" relative="1" as="geometry">
            <mxPoint as="offset" />
          </mxGeometry>
        </mxCell>
        <mxCell id="Fqdu5NloyelVK4SY1dfI-1" value="" style="rounded=0;whiteSpace=wrap;html=1;" vertex="1" parent="Fqdu5NloyelVK4SY1dfI-20">
          <mxGeometry x="10" width="160" height="40" as="geometry" />
        </mxCell>
        <mxCell id="Fqdu5NloyelVK4SY1dfI-2" value="" style="endArrow=none;dashed=1;html=1;rounded=0;entryX=0.25;entryY=0;entryDx=0;entryDy=0;exitX=0.25;exitY=1;exitDx=0;exitDy=0;" edge="1" parent="Fqdu5NloyelVK4SY1dfI-20" source="Fqdu5NloyelVK4SY1dfI-1" target="Fqdu5NloyelVK4SY1dfI-1">
          <mxGeometry width="50" height="50" relative="1" as="geometry">
            <mxPoint x="360" y="230" as="sourcePoint" />
            <mxPoint x="410" y="180" as="targetPoint" />
          </mxGeometry>
        </mxCell>
        <mxCell id="Fqdu5NloyelVK4SY1dfI-9" value="" style="endArrow=none;dashed=1;html=1;rounded=0;entryX=0.25;entryY=0;entryDx=0;entryDy=0;exitX=0.25;exitY=1;exitDx=0;exitDy=0;" edge="1" parent="Fqdu5NloyelVK4SY1dfI-20">
          <mxGeometry width="50" height="50" relative="1" as="geometry">
            <mxPoint x="89.8" y="40" as="sourcePoint" />
            <mxPoint x="89.8" as="targetPoint" />
          </mxGeometry>
        </mxCell>
        <mxCell id="Fqdu5NloyelVK4SY1dfI-10" value="" style="endArrow=none;dashed=1;html=1;rounded=0;entryX=0.25;entryY=0;entryDx=0;entryDy=0;exitX=0.25;exitY=1;exitDx=0;exitDy=0;" edge="1" parent="Fqdu5NloyelVK4SY1dfI-20">
          <mxGeometry width="50" height="50" relative="1" as="geometry">
            <mxPoint x="130" y="40" as="sourcePoint" />
            <mxPoint x="130" as="targetPoint" />
          </mxGeometry>
        </mxCell>
        <mxCell id="Fqdu5NloyelVK4SY1dfI-11" value="0" style="text;html=1;strokeColor=none;fillColor=none;align=center;verticalAlign=middle;whiteSpace=wrap;rounded=0;" vertex="1" parent="Fqdu5NloyelVK4SY1dfI-20">
          <mxGeometry y="40" width="20" height="20" as="geometry" />
        </mxCell>
        <mxCell id="Fqdu5NloyelVK4SY1dfI-12" value="25" style="text;html=1;strokeColor=none;fillColor=none;align=center;verticalAlign=middle;whiteSpace=wrap;rounded=0;" vertex="1" parent="Fqdu5NloyelVK4SY1dfI-20">
          <mxGeometry x="40" y="40" width="20" height="20" as="geometry" />
        </mxCell>
        <mxCell id="Fqdu5NloyelVK4SY1dfI-13" value="50" style="text;html=1;strokeColor=none;fillColor=none;align=center;verticalAlign=middle;whiteSpace=wrap;rounded=0;" vertex="1" parent="Fqdu5NloyelVK4SY1dfI-20">
          <mxGeometry x="80" y="40" width="20" height="20" as="geometry" />
        </mxCell>
        <mxCell id="Fqdu5NloyelVK4SY1dfI-14" value="75" style="text;html=1;strokeColor=none;fillColor=none;align=center;verticalAlign=middle;whiteSpace=wrap;rounded=0;" vertex="1" parent="Fqdu5NloyelVK4SY1dfI-20">
          <mxGeometry x="120" y="40" width="20" height="20" as="geometry" />
        </mxCell>
        <mxCell id="Fqdu5NloyelVK4SY1dfI-15" value="100" style="text;html=1;strokeColor=none;fillColor=none;align=center;verticalAlign=middle;whiteSpace=wrap;rounded=0;" vertex="1" parent="Fqdu5NloyelVK4SY1dfI-20">
          <mxGeometry x="160" y="40" width="20" height="20" as="geometry" />
        </mxCell>
        <mxCell id="Fqdu5NloyelVK4SY1dfI-31" value="25" style="text;html=1;strokeColor=none;fillColor=none;align=center;verticalAlign=middle;whiteSpace=wrap;rounded=0;" vertex="1" parent="1">
          <mxGeometry x="110" y="360" width="20" height="20" as="geometry" />
        </mxCell>
        <mxCell id="Fqdu5NloyelVK4SY1dfI-32" value="50" style="text;html=1;strokeColor=none;fillColor=none;align=center;verticalAlign=middle;whiteSpace=wrap;rounded=0;" vertex="1" parent="1">
          <mxGeometry x="160" y="200" width="20" height="20" as="geometry" />
        </mxCell>
        <mxCell id="Fqdu5NloyelVK4SY1dfI-33" value="75" style="text;html=1;strokeColor=none;fillColor=none;align=center;verticalAlign=middle;whiteSpace=wrap;rounded=0;" vertex="1" parent="1">
          <mxGeometry x="200" y="200" width="20" height="20" as="geometry" />
        </mxCell>
        <mxCell id="Fqdu5NloyelVK4SY1dfI-34" value="100" style="text;html=1;strokeColor=none;fillColor=none;align=center;verticalAlign=middle;whiteSpace=wrap;rounded=0;" vertex="1" parent="1">
          <mxGeometry x="240" y="200" width="20" height="20" as="geometry" />
        </mxCell>
        <mxCell id="Fqdu5NloyelVK4SY1dfI-35" value="" style="endArrow=none;dashed=1;html=1;rounded=0;exitX=0.25;exitY=1;exitDx=0;exitDy=0;entryX=0.25;entryY=0;entryDx=0;entryDy=0;" edge="1" parent="1">
          <mxGeometry width="50" height="50" relative="1" as="geometry">
            <mxPoint x="169.43" y="200" as="sourcePoint" />
            <mxPoint x="169.43" y="160" as="targetPoint" />
          </mxGeometry>
        </mxCell>
        <mxCell id="Fqdu5NloyelVK4SY1dfI-36" value="" style="endArrow=none;dashed=1;html=1;rounded=0;exitX=0.25;exitY=1;exitDx=0;exitDy=0;entryX=0.25;entryY=0;entryDx=0;entryDy=0;" edge="1" parent="1">
          <mxGeometry width="50" height="50" relative="1" as="geometry">
            <mxPoint x="210" y="200" as="sourcePoint" />
            <mxPoint x="210" y="160" as="targetPoint" />
          </mxGeometry>
        </mxCell>
        <mxCell id="Fqdu5NloyelVK4SY1dfI-37" value="" style="rounded=0;whiteSpace=wrap;html=1;" vertex="1" parent="1">
          <mxGeometry x="80" y="320" width="80" height="40" as="geometry" />
        </mxCell>
        <mxCell id="Fqdu5NloyelVK4SY1dfI-38" value="0" style="text;html=1;strokeColor=none;fillColor=none;align=center;verticalAlign=middle;whiteSpace=wrap;rounded=0;" vertex="1" parent="1">
          <mxGeometry x="70" y="360" width="20" height="20" as="geometry" />
        </mxCell>
        <mxCell id="Fqdu5NloyelVK4SY1dfI-39" value="50" style="text;html=1;strokeColor=none;fillColor=none;align=center;verticalAlign=middle;whiteSpace=wrap;rounded=0;" vertex="1" parent="1">
          <mxGeometry x="150" y="360" width="30" height="20" as="geometry" />
        </mxCell>
        <mxCell id="Fqdu5NloyelVK4SY1dfI-40" value="" style="rounded=0;whiteSpace=wrap;html=1;" vertex="1" parent="1">
          <mxGeometry x="170" y="320" width="80" height="40" as="geometry" />
        </mxCell>
        <mxCell id="Fqdu5NloyelVK4SY1dfI-41" value="75" style="text;html=1;strokeColor=none;fillColor=none;align=center;verticalAlign=middle;whiteSpace=wrap;rounded=0;" vertex="1" parent="1">
          <mxGeometry x="200" y="360" width="20" height="20" as="geometry" />
        </mxCell>
        <mxCell id="Fqdu5NloyelVK4SY1dfI-42" value="100" style="text;html=1;strokeColor=none;fillColor=none;align=center;verticalAlign=middle;whiteSpace=wrap;rounded=0;" vertex="1" parent="1">
          <mxGeometry x="240" y="360" width="20" height="20" as="geometry" />
        </mxCell>
        <mxCell id="Fqdu5NloyelVK4SY1dfI-43" value="25" style="text;html=1;strokeColor=none;fillColor=none;align=center;verticalAlign=middle;whiteSpace=wrap;rounded=0;" vertex="1" parent="1">
          <mxGeometry x="110" y="200" width="30" height="20" as="geometry" />
        </mxCell>
        <mxCell id="Fqdu5NloyelVK4SY1dfI-44" value="" style="rounded=0;whiteSpace=wrap;html=1;" vertex="1" parent="1">
          <mxGeometry x="80" y="480" width="120" height="40" as="geometry" />
        </mxCell>
        <mxCell id="Fqdu5NloyelVK4SY1dfI-45" value="" style="rounded=0;whiteSpace=wrap;html=1;" vertex="1" parent="1">
          <mxGeometry x="210" y="480" width="40" height="40" as="geometry" />
        </mxCell>
        <mxCell id="Fqdu5NloyelVK4SY1dfI-46" value="0" style="text;html=1;strokeColor=none;fillColor=none;align=center;verticalAlign=middle;whiteSpace=wrap;rounded=0;" vertex="1" parent="1">
          <mxGeometry x="70" y="520" width="20" height="20" as="geometry" />
        </mxCell>
        <mxCell id="Fqdu5NloyelVK4SY1dfI-47" value="50" style="text;html=1;strokeColor=none;fillColor=none;align=center;verticalAlign=middle;whiteSpace=wrap;rounded=0;" vertex="1" parent="1">
          <mxGeometry x="150" y="520" width="20" height="20" as="geometry" />
        </mxCell>
        <mxCell id="Fqdu5NloyelVK4SY1dfI-48" value="75" style="text;html=1;strokeColor=none;fillColor=none;align=center;verticalAlign=middle;whiteSpace=wrap;rounded=0;" vertex="1" parent="1">
          <mxGeometry x="190" y="520" width="30" height="20" as="geometry" />
        </mxCell>
        <mxCell id="Fqdu5NloyelVK4SY1dfI-49" value="100" style="text;html=1;strokeColor=none;fillColor=none;align=center;verticalAlign=middle;whiteSpace=wrap;rounded=0;" vertex="1" parent="1">
          <mxGeometry x="240" y="520" width="20" height="20" as="geometry" />
        </mxCell>
        <mxCell id="Fqdu5NloyelVK4SY1dfI-51" value="" style="endArrow=none;dashed=1;html=1;rounded=0;exitX=0.25;exitY=1;exitDx=0;exitDy=0;entryX=0.25;entryY=0;entryDx=0;entryDy=0;" edge="1" parent="1">
          <mxGeometry width="50" height="50" relative="1" as="geometry">
            <mxPoint x="120" y="520" as="sourcePoint" />
            <mxPoint x="120" y="480" as="targetPoint" />
          </mxGeometry>
        </mxCell>
        <mxCell id="Fqdu5NloyelVK4SY1dfI-52" value="25" style="text;html=1;strokeColor=none;fillColor=none;align=center;verticalAlign=middle;whiteSpace=wrap;rounded=0;" vertex="1" parent="1">
          <mxGeometry x="110" y="520" width="20" height="20" as="geometry" />
        </mxCell>
        <mxCell id="Fqdu5NloyelVK4SY1dfI-53" value="" style="endArrow=none;dashed=1;html=1;rounded=0;exitX=0.25;exitY=1;exitDx=0;exitDy=0;entryX=0.25;entryY=0;entryDx=0;entryDy=0;" edge="1" parent="1">
          <mxGeometry width="50" height="50" relative="1" as="geometry">
            <mxPoint x="119.71000000000001" y="360" as="sourcePoint" />
            <mxPoint x="119.71000000000001" y="320" as="targetPoint" />
          </mxGeometry>
        </mxCell>
        <mxCell id="Fqdu5NloyelVK4SY1dfI-54" value="" style="endArrow=none;dashed=1;html=1;rounded=0;exitX=0.25;exitY=1;exitDx=0;exitDy=0;entryX=0.25;entryY=0;entryDx=0;entryDy=0;" edge="1" parent="1">
          <mxGeometry width="50" height="50" relative="1" as="geometry">
            <mxPoint x="209.71000000000004" y="360" as="sourcePoint" />
            <mxPoint x="209.71000000000004" y="320" as="targetPoint" />
          </mxGeometry>
        </mxCell>
        <mxCell id="Fqdu5NloyelVK4SY1dfI-55" value="" style="endArrow=none;dashed=1;html=1;rounded=0;exitX=0.25;exitY=1;exitDx=0;exitDy=0;entryX=0.25;entryY=0;entryDx=0;entryDy=0;" edge="1" parent="1">
          <mxGeometry width="50" height="50" relative="1" as="geometry">
            <mxPoint x="160" y="520" as="sourcePoint" />
            <mxPoint x="160" y="480" as="targetPoint" />
          </mxGeometry>
        </mxCell>
        <mxCell id="Fqdu5NloyelVK4SY1dfI-56" value="" style="rounded=0;whiteSpace=wrap;html=1;" vertex="1" parent="1">
          <mxGeometry x="360" y="120" width="40" height="40" as="geometry" />
        </mxCell>
        <mxCell id="Fqdu5NloyelVK4SY1dfI-124" style="edgeStyle=orthogonalEdgeStyle;rounded=0;orthogonalLoop=1;jettySize=auto;html=1;" edge="1" parent="1" source="Fqdu5NloyelVK4SY1dfI-57">
          <mxGeometry relative="1" as="geometry">
            <mxPoint x="700" y="310" as="targetPoint" />
          </mxGeometry>
        </mxCell>
        <mxCell id="Fqdu5NloyelVK4SY1dfI-147" value="50" style="edgeLabel;html=1;align=center;verticalAlign=middle;resizable=0;points=[];" vertex="1" connectable="0" parent="Fqdu5NloyelVK4SY1dfI-124">
          <mxGeometry x="-0.6349" y="1" relative="1" as="geometry">
            <mxPoint as="offset" />
          </mxGeometry>
        </mxCell>
        <mxCell id="Fqdu5NloyelVK4SY1dfI-57" value="" style="rounded=0;whiteSpace=wrap;html=1;" vertex="1" parent="1">
          <mxGeometry x="460" y="120" width="80" height="40" as="geometry" />
        </mxCell>
        <mxCell id="Fqdu5NloyelVK4SY1dfI-58" value="0" style="text;html=1;strokeColor=none;fillColor=none;align=center;verticalAlign=middle;whiteSpace=wrap;rounded=0;" vertex="1" parent="1">
          <mxGeometry x="350" y="160" width="20" height="20" as="geometry" />
        </mxCell>
        <mxCell id="Fqdu5NloyelVK4SY1dfI-59" value="50" style="text;html=1;strokeColor=none;fillColor=none;align=center;verticalAlign=middle;whiteSpace=wrap;rounded=0;" vertex="1" parent="1">
          <mxGeometry x="440" y="160" width="30" height="20" as="geometry" />
        </mxCell>
        <mxCell id="Fqdu5NloyelVK4SY1dfI-60" value="75" style="text;html=1;strokeColor=none;fillColor=none;align=center;verticalAlign=middle;whiteSpace=wrap;rounded=0;" vertex="1" parent="1">
          <mxGeometry x="490" y="160" width="20" height="20" as="geometry" />
        </mxCell>
        <mxCell id="Fqdu5NloyelVK4SY1dfI-61" value="100" style="text;html=1;strokeColor=none;fillColor=none;align=center;verticalAlign=middle;whiteSpace=wrap;rounded=0;" vertex="1" parent="1">
          <mxGeometry x="530" y="160" width="20" height="20" as="geometry" />
        </mxCell>
        <mxCell id="Fqdu5NloyelVK4SY1dfI-63" value="" style="endArrow=none;dashed=1;html=1;rounded=0;exitX=0.25;exitY=1;exitDx=0;exitDy=0;entryX=0.25;entryY=0;entryDx=0;entryDy=0;" edge="1" parent="1">
          <mxGeometry width="50" height="50" relative="1" as="geometry">
            <mxPoint x="500" y="160" as="sourcePoint" />
            <mxPoint x="500" y="120" as="targetPoint" />
          </mxGeometry>
        </mxCell>
        <mxCell id="Fqdu5NloyelVK4SY1dfI-64" value="25" style="text;html=1;strokeColor=none;fillColor=none;align=center;verticalAlign=middle;whiteSpace=wrap;rounded=0;" vertex="1" parent="1">
          <mxGeometry x="390" y="160" width="30" height="20" as="geometry" />
        </mxCell>
        <mxCell id="Fqdu5NloyelVK4SY1dfI-65" value="" style="rounded=0;whiteSpace=wrap;html=1;" vertex="1" parent="1">
          <mxGeometry x="360" y="200" width="40" height="40" as="geometry" />
        </mxCell>
        <mxCell id="Fqdu5NloyelVK4SY1dfI-66" value="" style="rounded=0;whiteSpace=wrap;html=1;" vertex="1" parent="1">
          <mxGeometry x="410" y="200" width="80" height="40" as="geometry" />
        </mxCell>
        <mxCell id="Fqdu5NloyelVK4SY1dfI-67" value="0" style="text;html=1;strokeColor=none;fillColor=none;align=center;verticalAlign=middle;whiteSpace=wrap;rounded=0;" vertex="1" parent="1">
          <mxGeometry x="350" y="240" width="20" height="20" as="geometry" />
        </mxCell>
        <mxCell id="Fqdu5NloyelVK4SY1dfI-68" value="50" style="text;html=1;strokeColor=none;fillColor=none;align=center;verticalAlign=middle;whiteSpace=wrap;rounded=0;" vertex="1" parent="1">
          <mxGeometry x="440" y="240" width="20" height="20" as="geometry" />
        </mxCell>
        <mxCell id="Fqdu5NloyelVK4SY1dfI-69" value="75" style="text;html=1;strokeColor=none;fillColor=none;align=center;verticalAlign=middle;whiteSpace=wrap;rounded=0;" vertex="1" parent="1">
          <mxGeometry x="480" y="240" width="30" height="20" as="geometry" />
        </mxCell>
        <mxCell id="Fqdu5NloyelVK4SY1dfI-70" value="100" style="text;html=1;strokeColor=none;fillColor=none;align=center;verticalAlign=middle;whiteSpace=wrap;rounded=0;" vertex="1" parent="1">
          <mxGeometry x="530" y="240" width="20" height="20" as="geometry" />
        </mxCell>
        <mxCell id="Fqdu5NloyelVK4SY1dfI-71" value="" style="endArrow=none;dashed=1;html=1;rounded=0;exitX=0.25;exitY=1;exitDx=0;exitDy=0;entryX=0.25;entryY=0;entryDx=0;entryDy=0;" edge="1" parent="1">
          <mxGeometry width="50" height="50" relative="1" as="geometry">
            <mxPoint x="449.43" y="240" as="sourcePoint" />
            <mxPoint x="449.43" y="200" as="targetPoint" />
          </mxGeometry>
        </mxCell>
        <mxCell id="Fqdu5NloyelVK4SY1dfI-73" value="25" style="text;html=1;strokeColor=none;fillColor=none;align=center;verticalAlign=middle;whiteSpace=wrap;rounded=0;" vertex="1" parent="1">
          <mxGeometry x="390" y="240" width="30" height="20" as="geometry" />
        </mxCell>
        <mxCell id="Fqdu5NloyelVK4SY1dfI-74" value="" style="rounded=0;whiteSpace=wrap;html=1;" vertex="1" parent="1">
          <mxGeometry x="410" y="120" width="40" height="40" as="geometry" />
        </mxCell>
        <mxCell id="Fqdu5NloyelVK4SY1dfI-125" style="edgeStyle=orthogonalEdgeStyle;rounded=0;orthogonalLoop=1;jettySize=auto;html=1;" edge="1" parent="1" source="Fqdu5NloyelVK4SY1dfI-75">
          <mxGeometry relative="1" as="geometry">
            <mxPoint x="680" y="310" as="targetPoint" />
          </mxGeometry>
        </mxCell>
        <mxCell id="Fqdu5NloyelVK4SY1dfI-148" value="50" style="edgeLabel;html=1;align=center;verticalAlign=middle;resizable=0;points=[];" vertex="1" connectable="0" parent="Fqdu5NloyelVK4SY1dfI-125">
          <mxGeometry x="-0.4765" y="1" relative="1" as="geometry">
            <mxPoint as="offset" />
          </mxGeometry>
        </mxCell>
        <mxCell id="Fqdu5NloyelVK4SY1dfI-75" value="" style="rounded=0;whiteSpace=wrap;html=1;" vertex="1" parent="1">
          <mxGeometry x="500" y="200" width="40" height="40" as="geometry" />
        </mxCell>
        <mxCell id="Fqdu5NloyelVK4SY1dfI-77" value="" style="rounded=0;whiteSpace=wrap;html=1;" vertex="1" parent="1">
          <mxGeometry x="360" y="280" width="40" height="40" as="geometry" />
        </mxCell>
        <mxCell id="Fqdu5NloyelVK4SY1dfI-126" style="edgeStyle=orthogonalEdgeStyle;rounded=0;orthogonalLoop=1;jettySize=auto;html=1;" edge="1" parent="1" source="Fqdu5NloyelVK4SY1dfI-78">
          <mxGeometry relative="1" as="geometry">
            <mxPoint x="660" y="310" as="targetPoint" />
            <Array as="points">
              <mxPoint x="660" y="300" />
            </Array>
          </mxGeometry>
        </mxCell>
        <mxCell id="Fqdu5NloyelVK4SY1dfI-149" value="50" style="edgeLabel;html=1;align=center;verticalAlign=middle;resizable=0;points=[];" vertex="1" connectable="0" parent="Fqdu5NloyelVK4SY1dfI-126">
          <mxGeometry x="-0.0846" y="1" relative="1" as="geometry">
            <mxPoint as="offset" />
          </mxGeometry>
        </mxCell>
        <mxCell id="Fqdu5NloyelVK4SY1dfI-78" value="" style="rounded=0;whiteSpace=wrap;html=1;" vertex="1" parent="1">
          <mxGeometry x="460" y="280" width="80" height="40" as="geometry" />
        </mxCell>
        <mxCell id="Fqdu5NloyelVK4SY1dfI-79" value="0" style="text;html=1;strokeColor=none;fillColor=none;align=center;verticalAlign=middle;whiteSpace=wrap;rounded=0;" vertex="1" parent="1">
          <mxGeometry x="350" y="320" width="20" height="20" as="geometry" />
        </mxCell>
        <mxCell id="Fqdu5NloyelVK4SY1dfI-80" value="50" style="text;html=1;strokeColor=none;fillColor=none;align=center;verticalAlign=middle;whiteSpace=wrap;rounded=0;" vertex="1" parent="1">
          <mxGeometry x="440" y="320" width="30" height="20" as="geometry" />
        </mxCell>
        <mxCell id="Fqdu5NloyelVK4SY1dfI-81" value="75" style="text;html=1;strokeColor=none;fillColor=none;align=center;verticalAlign=middle;whiteSpace=wrap;rounded=0;" vertex="1" parent="1">
          <mxGeometry x="490" y="320" width="20" height="20" as="geometry" />
        </mxCell>
        <mxCell id="Fqdu5NloyelVK4SY1dfI-82" value="100" style="text;html=1;strokeColor=none;fillColor=none;align=center;verticalAlign=middle;whiteSpace=wrap;rounded=0;" vertex="1" parent="1">
          <mxGeometry x="530" y="320" width="20" height="20" as="geometry" />
        </mxCell>
        <mxCell id="Fqdu5NloyelVK4SY1dfI-83" value="" style="endArrow=none;dashed=1;html=1;rounded=0;exitX=0.25;exitY=1;exitDx=0;exitDy=0;entryX=0.25;entryY=0;entryDx=0;entryDy=0;" edge="1" parent="1">
          <mxGeometry width="50" height="50" relative="1" as="geometry">
            <mxPoint x="500" y="320" as="sourcePoint" />
            <mxPoint x="500" y="280" as="targetPoint" />
          </mxGeometry>
        </mxCell>
        <mxCell id="Fqdu5NloyelVK4SY1dfI-84" value="25" style="text;html=1;strokeColor=none;fillColor=none;align=center;verticalAlign=middle;whiteSpace=wrap;rounded=0;" vertex="1" parent="1">
          <mxGeometry x="390" y="320" width="30" height="20" as="geometry" />
        </mxCell>
        <mxCell id="Fqdu5NloyelVK4SY1dfI-85" value="" style="rounded=0;whiteSpace=wrap;html=1;" vertex="1" parent="1">
          <mxGeometry x="410" y="280" width="40" height="40" as="geometry" />
        </mxCell>
        <mxCell id="Fqdu5NloyelVK4SY1dfI-86" value="" style="rounded=0;whiteSpace=wrap;html=1;" vertex="1" parent="1">
          <mxGeometry x="450" y="360" width="40" height="40" as="geometry" />
        </mxCell>
        <mxCell id="Fqdu5NloyelVK4SY1dfI-87" value="" style="rounded=0;whiteSpace=wrap;html=1;" vertex="1" parent="1">
          <mxGeometry x="360" y="360" width="80" height="40" as="geometry" />
        </mxCell>
        <mxCell id="Fqdu5NloyelVK4SY1dfI-88" value="0" style="text;html=1;strokeColor=none;fillColor=none;align=center;verticalAlign=middle;whiteSpace=wrap;rounded=0;" vertex="1" parent="1">
          <mxGeometry x="350" y="400" width="20" height="20" as="geometry" />
        </mxCell>
        <mxCell id="Fqdu5NloyelVK4SY1dfI-89" value="50" style="text;html=1;strokeColor=none;fillColor=none;align=center;verticalAlign=middle;whiteSpace=wrap;rounded=0;" vertex="1" parent="1">
          <mxGeometry x="430" y="400" width="30" height="20" as="geometry" />
        </mxCell>
        <mxCell id="Fqdu5NloyelVK4SY1dfI-90" value="75" style="text;html=1;strokeColor=none;fillColor=none;align=center;verticalAlign=middle;whiteSpace=wrap;rounded=0;" vertex="1" parent="1">
          <mxGeometry x="480" y="400" width="30" height="20" as="geometry" />
        </mxCell>
        <mxCell id="Fqdu5NloyelVK4SY1dfI-91" value="100" style="text;html=1;strokeColor=none;fillColor=none;align=center;verticalAlign=middle;whiteSpace=wrap;rounded=0;" vertex="1" parent="1">
          <mxGeometry x="530" y="400" width="20" height="20" as="geometry" />
        </mxCell>
        <mxCell id="Fqdu5NloyelVK4SY1dfI-92" value="" style="endArrow=none;dashed=1;html=1;rounded=0;exitX=0.25;exitY=1;exitDx=0;exitDy=0;entryX=0.25;entryY=0;entryDx=0;entryDy=0;" edge="1" parent="1">
          <mxGeometry width="50" height="50" relative="1" as="geometry">
            <mxPoint x="399.17" y="400" as="sourcePoint" />
            <mxPoint x="399.17" y="360" as="targetPoint" />
          </mxGeometry>
        </mxCell>
        <mxCell id="Fqdu5NloyelVK4SY1dfI-93" value="25" style="text;html=1;strokeColor=none;fillColor=none;align=center;verticalAlign=middle;whiteSpace=wrap;rounded=0;" vertex="1" parent="1">
          <mxGeometry x="390" y="400" width="20" height="20" as="geometry" />
        </mxCell>
        <mxCell id="Fqdu5NloyelVK4SY1dfI-128" style="edgeStyle=orthogonalEdgeStyle;rounded=0;orthogonalLoop=1;jettySize=auto;html=1;entryX=1;entryY=1;entryDx=0;entryDy=0;" edge="1" parent="1" source="Fqdu5NloyelVK4SY1dfI-94" target="Fqdu5NloyelVK4SY1dfI-122">
          <mxGeometry relative="1" as="geometry" />
        </mxCell>
        <mxCell id="Fqdu5NloyelVK4SY1dfI-150" value="50" style="edgeLabel;html=1;align=center;verticalAlign=middle;resizable=0;points=[];" vertex="1" connectable="0" parent="Fqdu5NloyelVK4SY1dfI-128">
          <mxGeometry x="-0.0062" relative="1" as="geometry">
            <mxPoint as="offset" />
          </mxGeometry>
        </mxCell>
        <mxCell id="Fqdu5NloyelVK4SY1dfI-94" value="" style="rounded=0;whiteSpace=wrap;html=1;" vertex="1" parent="1">
          <mxGeometry x="500" y="360" width="40" height="40" as="geometry" />
        </mxCell>
        <mxCell id="Fqdu5NloyelVK4SY1dfI-95" value="" style="rounded=0;whiteSpace=wrap;html=1;" vertex="1" parent="1">
          <mxGeometry x="450" y="520" width="40" height="40" as="geometry" />
        </mxCell>
        <mxCell id="Fqdu5NloyelVK4SY1dfI-96" value="" style="rounded=0;whiteSpace=wrap;html=1;" vertex="1" parent="1">
          <mxGeometry x="360" y="520" width="80" height="40" as="geometry" />
        </mxCell>
        <mxCell id="Fqdu5NloyelVK4SY1dfI-97" value="0" style="text;html=1;strokeColor=none;fillColor=none;align=center;verticalAlign=middle;whiteSpace=wrap;rounded=0;" vertex="1" parent="1">
          <mxGeometry x="350" y="560" width="20" height="20" as="geometry" />
        </mxCell>
        <mxCell id="Fqdu5NloyelVK4SY1dfI-98" value="50" style="text;html=1;strokeColor=none;fillColor=none;align=center;verticalAlign=middle;whiteSpace=wrap;rounded=0;" vertex="1" parent="1">
          <mxGeometry x="430" y="560" width="30" height="20" as="geometry" />
        </mxCell>
        <mxCell id="Fqdu5NloyelVK4SY1dfI-99" value="75" style="text;html=1;strokeColor=none;fillColor=none;align=center;verticalAlign=middle;whiteSpace=wrap;rounded=0;" vertex="1" parent="1">
          <mxGeometry x="480" y="560" width="30" height="20" as="geometry" />
        </mxCell>
        <mxCell id="Fqdu5NloyelVK4SY1dfI-100" value="100" style="text;html=1;strokeColor=none;fillColor=none;align=center;verticalAlign=middle;whiteSpace=wrap;rounded=0;" vertex="1" parent="1">
          <mxGeometry x="530" y="560" width="20" height="20" as="geometry" />
        </mxCell>
        <mxCell id="Fqdu5NloyelVK4SY1dfI-101" value="" style="endArrow=none;dashed=1;html=1;rounded=0;exitX=0.25;exitY=1;exitDx=0;exitDy=0;entryX=0.25;entryY=0;entryDx=0;entryDy=0;" edge="1" parent="1">
          <mxGeometry width="50" height="50" relative="1" as="geometry">
            <mxPoint x="399.17" y="560" as="sourcePoint" />
            <mxPoint x="399.17" y="520" as="targetPoint" />
          </mxGeometry>
        </mxCell>
        <mxCell id="Fqdu5NloyelVK4SY1dfI-102" value="25" style="text;html=1;strokeColor=none;fillColor=none;align=center;verticalAlign=middle;whiteSpace=wrap;rounded=0;" vertex="1" parent="1">
          <mxGeometry x="390" y="560" width="20" height="20" as="geometry" />
        </mxCell>
        <mxCell id="Fqdu5NloyelVK4SY1dfI-130" style="edgeStyle=orthogonalEdgeStyle;rounded=0;orthogonalLoop=1;jettySize=auto;html=1;entryX=0.75;entryY=1;entryDx=0;entryDy=0;" edge="1" parent="1" source="Fqdu5NloyelVK4SY1dfI-103" target="Fqdu5NloyelVK4SY1dfI-123">
          <mxGeometry relative="1" as="geometry" />
        </mxCell>
        <mxCell id="Fqdu5NloyelVK4SY1dfI-152" value="50" style="edgeLabel;html=1;align=center;verticalAlign=middle;resizable=0;points=[];" vertex="1" connectable="0" parent="Fqdu5NloyelVK4SY1dfI-130">
          <mxGeometry x="-0.6258" y="1" relative="1" as="geometry">
            <mxPoint as="offset" />
          </mxGeometry>
        </mxCell>
        <mxCell id="Fqdu5NloyelVK4SY1dfI-103" value="" style="rounded=0;whiteSpace=wrap;html=1;" vertex="1" parent="1">
          <mxGeometry x="500" y="520" width="40" height="40" as="geometry" />
        </mxCell>
        <mxCell id="Fqdu5NloyelVK4SY1dfI-104" value="" style="rounded=0;whiteSpace=wrap;html=1;" vertex="1" parent="1">
          <mxGeometry x="360" y="440" width="40" height="40" as="geometry" />
        </mxCell>
        <mxCell id="Fqdu5NloyelVK4SY1dfI-105" value="" style="rounded=0;whiteSpace=wrap;html=1;" vertex="1" parent="1">
          <mxGeometry x="410" y="440" width="80" height="40" as="geometry" />
        </mxCell>
        <mxCell id="Fqdu5NloyelVK4SY1dfI-106" value="0" style="text;html=1;strokeColor=none;fillColor=none;align=center;verticalAlign=middle;whiteSpace=wrap;rounded=0;" vertex="1" parent="1">
          <mxGeometry x="350" y="480" width="20" height="20" as="geometry" />
        </mxCell>
        <mxCell id="Fqdu5NloyelVK4SY1dfI-107" value="50" style="text;html=1;strokeColor=none;fillColor=none;align=center;verticalAlign=middle;whiteSpace=wrap;rounded=0;" vertex="1" parent="1">
          <mxGeometry x="440" y="480" width="20" height="20" as="geometry" />
        </mxCell>
        <mxCell id="Fqdu5NloyelVK4SY1dfI-108" value="75" style="text;html=1;strokeColor=none;fillColor=none;align=center;verticalAlign=middle;whiteSpace=wrap;rounded=0;" vertex="1" parent="1">
          <mxGeometry x="480" y="480" width="30" height="20" as="geometry" />
        </mxCell>
        <mxCell id="Fqdu5NloyelVK4SY1dfI-109" value="100" style="text;html=1;strokeColor=none;fillColor=none;align=center;verticalAlign=middle;whiteSpace=wrap;rounded=0;" vertex="1" parent="1">
          <mxGeometry x="530" y="480" width="20" height="20" as="geometry" />
        </mxCell>
        <mxCell id="Fqdu5NloyelVK4SY1dfI-110" value="" style="endArrow=none;dashed=1;html=1;rounded=0;exitX=0.25;exitY=1;exitDx=0;exitDy=0;entryX=0.25;entryY=0;entryDx=0;entryDy=0;" edge="1" parent="1">
          <mxGeometry width="50" height="50" relative="1" as="geometry">
            <mxPoint x="449.43" y="480" as="sourcePoint" />
            <mxPoint x="449.43" y="440" as="targetPoint" />
          </mxGeometry>
        </mxCell>
        <mxCell id="Fqdu5NloyelVK4SY1dfI-111" value="25" style="text;html=1;strokeColor=none;fillColor=none;align=center;verticalAlign=middle;whiteSpace=wrap;rounded=0;" vertex="1" parent="1">
          <mxGeometry x="390" y="480" width="30" height="20" as="geometry" />
        </mxCell>
        <mxCell id="Fqdu5NloyelVK4SY1dfI-129" style="edgeStyle=orthogonalEdgeStyle;rounded=0;orthogonalLoop=1;jettySize=auto;html=1;entryX=0;entryY=1;entryDx=0;entryDy=0;" edge="1" parent="1" source="Fqdu5NloyelVK4SY1dfI-112" target="Fqdu5NloyelVK4SY1dfI-123">
          <mxGeometry relative="1" as="geometry" />
        </mxCell>
        <mxCell id="Fqdu5NloyelVK4SY1dfI-151" value="50" style="edgeLabel;html=1;align=center;verticalAlign=middle;resizable=0;points=[];" vertex="1" connectable="0" parent="Fqdu5NloyelVK4SY1dfI-129">
          <mxGeometry x="-0.4515" y="1" relative="1" as="geometry">
            <mxPoint as="offset" />
          </mxGeometry>
        </mxCell>
        <mxCell id="Fqdu5NloyelVK4SY1dfI-112" value="" style="rounded=0;whiteSpace=wrap;html=1;" vertex="1" parent="1">
          <mxGeometry x="500" y="440" width="40" height="40" as="geometry" />
        </mxCell>
        <mxCell id="Fqdu5NloyelVK4SY1dfI-113" value="" style="rounded=0;whiteSpace=wrap;html=1;" vertex="1" parent="1">
          <mxGeometry x="600" y="320" width="40" height="40" as="geometry" />
        </mxCell>
        <mxCell id="Fqdu5NloyelVK4SY1dfI-114" value="" style="rounded=0;whiteSpace=wrap;html=1;" vertex="1" parent="1">
          <mxGeometry x="650" y="320" width="40" height="40" as="geometry" />
        </mxCell>
        <mxCell id="Fqdu5NloyelVK4SY1dfI-115" value="" style="rounded=0;whiteSpace=wrap;html=1;" vertex="1" parent="1">
          <mxGeometry x="750" y="320" width="40" height="40" as="geometry" />
        </mxCell>
        <mxCell id="Fqdu5NloyelVK4SY1dfI-116" value="" style="rounded=0;whiteSpace=wrap;html=1;" vertex="1" parent="1">
          <mxGeometry x="700" y="320" width="40" height="40" as="geometry" />
        </mxCell>
        <mxCell id="Fqdu5NloyelVK4SY1dfI-119" value="0" style="text;html=1;strokeColor=none;fillColor=none;align=center;verticalAlign=middle;whiteSpace=wrap;rounded=0;" vertex="1" parent="1">
          <mxGeometry x="590" y="360" width="20" height="20" as="geometry" />
        </mxCell>
        <mxCell id="Fqdu5NloyelVK4SY1dfI-120" value="100" style="text;html=1;strokeColor=none;fillColor=none;align=center;verticalAlign=middle;whiteSpace=wrap;rounded=0;" vertex="1" parent="1">
          <mxGeometry x="780" y="360" width="20" height="20" as="geometry" />
        </mxCell>
        <mxCell id="Fqdu5NloyelVK4SY1dfI-121" value="75" style="text;html=1;strokeColor=none;fillColor=none;align=center;verticalAlign=middle;whiteSpace=wrap;rounded=0;" vertex="1" parent="1">
          <mxGeometry x="730" y="360" width="30" height="20" as="geometry" />
        </mxCell>
        <mxCell id="Fqdu5NloyelVK4SY1dfI-122" value="25" style="text;html=1;strokeColor=none;fillColor=none;align=center;verticalAlign=middle;whiteSpace=wrap;rounded=0;" vertex="1" parent="1">
          <mxGeometry x="630" y="360" width="30" height="20" as="geometry" />
        </mxCell>
        <mxCell id="Fqdu5NloyelVK4SY1dfI-123" value="50" style="text;html=1;strokeColor=none;fillColor=none;align=center;verticalAlign=middle;whiteSpace=wrap;rounded=0;" vertex="1" parent="1">
          <mxGeometry x="680" y="360" width="30" height="20" as="geometry" />
        </mxCell>
        <mxCell id="Fqdu5NloyelVK4SY1dfI-134" style="edgeStyle=orthogonalEdgeStyle;rounded=0;orthogonalLoop=1;jettySize=auto;html=1;exitX=1;exitY=0.5;exitDx=0;exitDy=0;" edge="1" parent="1">
          <mxGeometry relative="1" as="geometry">
            <mxPoint x="340" y="300" as="targetPoint" />
            <mxPoint x="250" y="340" as="sourcePoint" />
            <Array as="points">
              <mxPoint x="300" y="340" />
              <mxPoint x="300" y="300" />
            </Array>
          </mxGeometry>
        </mxCell>
        <mxCell id="Fqdu5NloyelVK4SY1dfI-135" style="edgeStyle=orthogonalEdgeStyle;rounded=0;orthogonalLoop=1;jettySize=auto;html=1;" edge="1" parent="1">
          <mxGeometry relative="1" as="geometry">
            <mxPoint x="340" y="380" as="targetPoint" />
            <mxPoint x="250" y="340" as="sourcePoint" />
            <Array as="points">
              <mxPoint x="300" y="340" />
              <mxPoint x="300" y="380" />
            </Array>
          </mxGeometry>
        </mxCell>
        <mxCell id="Fqdu5NloyelVK4SY1dfI-144" value="50" style="edgeLabel;html=1;align=center;verticalAlign=middle;resizable=0;points=[];" vertex="1" connectable="0" parent="Fqdu5NloyelVK4SY1dfI-135">
          <mxGeometry x="-0.6308" y="2" relative="1" as="geometry">
            <mxPoint y="2" as="offset" />
          </mxGeometry>
        </mxCell>
        <mxCell id="Fqdu5NloyelVK4SY1dfI-136" style="edgeStyle=orthogonalEdgeStyle;rounded=0;orthogonalLoop=1;jettySize=auto;html=1;" edge="1" parent="1">
          <mxGeometry relative="1" as="geometry">
            <mxPoint x="340" y="540" as="targetPoint" />
            <mxPoint x="250" y="500" as="sourcePoint" />
            <Array as="points">
              <mxPoint x="300" y="500" />
              <mxPoint x="300" y="540" />
            </Array>
          </mxGeometry>
        </mxCell>
        <mxCell id="Fqdu5NloyelVK4SY1dfI-137" style="edgeStyle=orthogonalEdgeStyle;rounded=0;orthogonalLoop=1;jettySize=auto;html=1;exitX=1;exitY=0.5;exitDx=0;exitDy=0;" edge="1" parent="1">
          <mxGeometry relative="1" as="geometry">
            <mxPoint x="340" y="460" as="targetPoint" />
            <mxPoint x="250" y="500" as="sourcePoint" />
            <Array as="points">
              <mxPoint x="300" y="500" />
              <mxPoint x="300" y="460" />
            </Array>
          </mxGeometry>
        </mxCell>
        <mxCell id="Fqdu5NloyelVK4SY1dfI-146" value="75" style="edgeLabel;html=1;align=center;verticalAlign=middle;resizable=0;points=[];" vertex="1" connectable="0" parent="Fqdu5NloyelVK4SY1dfI-137">
          <mxGeometry x="-0.6082" relative="1" as="geometry">
            <mxPoint x="-1" as="offset" />
          </mxGeometry>
        </mxCell>
        <mxCell id="Fqdu5NloyelVK4SY1dfI-139" value="100" style="endArrow=classic;html=1;rounded=0;" edge="1" parent="1">
          <mxGeometry width="50" height="50" relative="1" as="geometry">
            <mxPoint x="20" y="340" as="sourcePoint" />
            <mxPoint x="70" y="340" as="targetPoint" />
          </mxGeometry>
        </mxCell>
        <mxCell id="Fqdu5NloyelVK4SY1dfI-140" value="100" style="endArrow=classic;html=1;rounded=0;" edge="1" parent="1">
          <mxGeometry width="50" height="50" relative="1" as="geometry">
            <mxPoint x="20" y="179.6" as="sourcePoint" />
            <mxPoint x="70" y="180" as="targetPoint" />
          </mxGeometry>
        </mxCell>
      </root>
    </mxGraphModel>
  </diagram>
</mxfile>
